<?xml version="1.0" encoding="utf-8"?>
<svg xmlns="http://www.w3.org/2000/svg" xmlns:xlink="http://www.w3.org/1999/xlink" style="margin: auto; background: rgb(241, 242, 243); display: block; shape-rendering: auto;" width="200px" height="200px" viewBox="0 0 100 100" preserveAspectRatio="xMidYMid">
<g transform="rotate(0 50 50)">
  <rect x="47" y="24" rx="3" ry="6" width="6" height="12" fill="#3c0f0f">
    <animate attributeName="opacity" values="1;0" keyTimes="0;1" dur="1.5384615384615383s" begin="-1.4102564102564101s" repeatCount="indefinite"></animate>
  </rect>
</g><g transform="rotate(30 50 50)">
  <rect x="47" y="24" rx="3" ry="6" width="6" height="12" fill="#3c0f0f">
    <animate attributeName="opacity" values="1;0" keyTimes="0;1" dur="1.5384615384615383s" begin="-1.282051282051282s" repeatCount="indefinite"></animate>
  </rect>
</g><g transform="rotate(60 50 50)">
  <rect x="47" y="24" rx="3" ry="6" width="6" height="12" fill="#3c0f0f">
    <animate attributeName="opacity" values="1;0" keyTimes="0;1" dur="1.5384615384615383s" begin="-1.1538461538461537s" repeatCount="indefinite"></animate>
  </rect>
</g><g transform="rotate(90 50 50)">
  <rect x="47" y="24" rx="3" ry="6" width="6" height="12" fill="#3c0f0f">
    <animate attributeName="opacity" values="1;0" keyTimes="0;1" dur="1.5384615384615383s" begin="-1.0256410256410255s" repeatCount="indefinite"></animate>
  </rect>
</g><g transform="rotate(120 50 50)">
  <rect x="47" y="24" rx="3" ry="6" width="6" height="12" fill="#3c0f0f">
    <animate attributeName="opacity" values="1;0" keyTimes="0;1" dur="1.5384615384615383s" begin="-0.8974358974358974s" repeatCount="indefinite"></animate>
  </rect>
</g><g transform="rotate(150 50 50)">
  <rect x="47" y="24" rx="3" ry="6" width="6" height="12" fill="#3c0f0f">
    <animate attributeName="opacity" values="1;0" keyTimes="0;1" dur="1.5384615384615383s" begin="-0.7692307692307692s" repeatCount="indefinite"></animate>
  </rect>
</g><g transform="rotate(180 50 50)">
  <rect x="47" y="24" rx="3" ry="6" width="6" height="12" fill="#3c0f0f">
    <animate attributeName="opacity" values="1;0" keyTimes="0;1" dur="1.5384615384615383s" begin="-0.641025641025641s" repeatCount="indefinite"></animate>
  </rect>
</g><g transform="rotate(210 50 50)">
  <rect x="47" y="24" rx="3" ry="6" width="6" height="12" fill="#3c0f0f">
    <animate attributeName="opacity" values="1;0" keyTimes="0;1" dur="1.5384615384615383s" begin="-0.5128205128205128s" repeatCount="indefinite"></animate>
  </rect>
</g><g transform="rotate(240 50 50)">
  <rect x="47" y="24" rx="3" ry="6" width="6" height="12" fill="#3c0f0f">
    <animate attributeName="opacity" values="1;0" keyTimes="0;1" dur="1.5384615384615383s" begin="-0.3846153846153846s" repeatCount="indefinite"></animate>
  </rect>
</g><g transform="rotate(270 50 50)">
  <rect x="47" y="24" rx="3" ry="6" width="6" height="12" fill="#3c0f0f">
    <animate attributeName="opacity" values="1;0" keyTimes="0;1" dur="1.5384615384615383s" begin="-0.2564102564102564s" repeatCount="indefinite"></animate>
  </rect>
</g><g transform="rotate(300 50 50)">
  <rect x="47" y="24" rx="3" ry="6" width="6" height="12" fill="#3c0f0f">
    <animate attributeName="opacity" values="1;0" keyTimes="0;1" dur="1.5384615384615383s" begin="-0.1282051282051282s" repeatCount="indefinite"></animate>
  </rect>
</g><g transform="rotate(330 50 50)">
  <rect x="47" y="24" rx="3" ry="6" width="6" height="12" fill="#3c0f0f">
    <animate attributeName="opacity" values="1;0" keyTimes="0;1" dur="1.5384615384615383s" begin="0s" repeatCount="indefinite"></animate>
  </rect>
</g>
<!-- [ldio] generated by https://loading.io/ --></svg>